<?xml version="1.0" standalone="no"?>
<!DOCTYPE svg PUBLIC "-//W3C//DTD SVG 20010904//EN"
 "http://www.w3.org/TR/2001/REC-SVG-20010904/DTD/svg10.dtd">
<svg version="1.0" xmlns="http://www.w3.org/2000/svg"
 width="310.000000pt" height="162.000000pt" viewBox="0 0 310.000000 162.000000"
 preserveAspectRatio="xMidYMid meet">

<g transform="translate(0.000000,162.000000) scale(0.100000,-0.100000)"
fill="#000000" stroke="none">
<path d="M0 810 l0 -810 655 0 c541 0 655 2 655 13 0 16 45 39 55 29 4 -4 25
-8 48 -9 23 -2 59 -4 79 -6 24 -2 39 1 42 10 6 14 52 18 60 4 9 -14 60 -10 71
6 9 12 16 12 38 2 15 -7 27 -16 27 -21 0 -4 7 -8 15 -8 8 0 15 -4 15 -10 0 -7
230 -10 670 -10 l670 0 0 810 0 810 -1550 0 -1550 0 0 -810z m1959 737 c19
-10 42 -15 52 -12 19 6 32 -9 34 -38 1 -13 -3 -16 -14 -11 -35 14 -50 15 -68
5 -16 -9 -14 -10 12 -11 40 0 105 -19 105 -30 0 -4 -10 -6 -22 -3 -23 4 -23 4
1 -17 l25 -21 -30 6 c-50 11 -54 14 -48 30 3 8 1 15 -5 15 -6 0 -11 -7 -11
-15 0 -14 -33 -20 -82 -16 -9 1 -19 -3 -23 -9 -4 -6 14 -10 52 -10 75 0 130
-16 143 -40 11 -20 -3 -30 -14 -11 -10 16 -176 37 -174 22 2 -19 -4 -24 -12
-11 -7 11 -12 12 -18 3 -4 -6 -21 -19 -37 -28 l-30 -17 45 7 c116 18 173 20
184 9 7 -6 22 -15 34 -18 12 -4 22 -11 22 -16 0 -5 6 -7 13 -4 8 3 20 -2 27
-11 7 -9 8 -15 2 -15 -6 0 -13 6 -15 13 -3 6 -6 -2 -6 -18 -1 -17 7 -47 17
-67 l19 -36 -24 2 c-12 0 -23 4 -23 9 0 4 -7 7 -16 7 -9 0 -18 9 -21 20 -3 11
-8 20 -12 21 -57 10 -74 5 -112 -32 -22 -22 -46 -39 -54 -39 -8 0 -15 -4 -15
-9 0 -5 -9 -13 -21 -16 -28 -9 -87 -48 -120 -79 -15 -14 -29 -22 -33 -19 -3 4
-6 -8 -6 -26 0 -23 -6 -34 -22 -41 -15 -5 -17 -9 -7 -9 13 -1 15 -11 11 -55
-5 -64 34 -246 53 -246 7 0 20 -18 30 -40 10 -22 28 -46 41 -55 31 -20 37 -19
25 4 -6 10 -7 21 -4 25 3 3 1 6 -6 6 -7 0 -11 6 -8 14 3 7 -3 27 -14 45 -13
21 -15 31 -6 32 9 0 9 2 0 6 -7 2 -13 18 -13 34 0 17 -4 28 -9 25 -11 -7 -21
17 -21 49 0 34 -10 56 -23 48 -6 -3 -7 -1 -3 5 5 9 13 9 27 2 11 -6 24 -8 29
-5 6 3 10 1 10 -5 0 -7 6 -10 13 -7 6 2 11 15 9 29 -5 38 12 41 36 8 28 -37
76 -48 104 -23 12 10 18 12 14 6 -9 -16 6 -17 22 -1 6 6 14 9 18 6 3 -4 -6
-14 -21 -24 -18 -12 -48 -17 -95 -18 -37 -1 -72 -4 -76 -8 -4 -4 -19 -5 -33
-2 l-26 5 24 -20 c13 -12 31 -21 42 -21 10 0 20 -4 23 -9 10 -16 80 -19 115
-5 18 8 42 14 52 14 11 0 24 11 31 25 6 13 24 28 39 34 16 5 29 15 29 20 0 16
53 13 75 -2 13 -10 15 -16 6 -21 -9 -6 -8 -14 4 -33 12 -18 14 -28 5 -38 -6
-7 -8 -25 -4 -39 3 -14 2 -26 -3 -26 -4 0 -19 -18 -33 -40 -14 -22 -28 -40
-32 -40 -5 0 -8 -8 -9 -17 0 -10 -9 -31 -20 -48 -10 -16 -21 -37 -25 -45 -18
-48 -34 -65 -55 -62 -21 4 -22 2 -9 -13 13 -15 12 -17 -5 -14 -11 3 -28 -4
-37 -13 -10 -10 -25 -18 -33 -18 -18 0 -20 26 -2 33 7 3 5 6 -5 6 -10 1 -18 6
-18 11 0 21 -2 25 -16 41 -8 9 -11 19 -7 24 5 4 0 5 -9 2 -11 -4 -18 -1 -18 7
0 13 -70 17 -80 5 -3 -4 -23 -18 -44 -33 -46 -31 -79 -33 -106 -6 -23 23 -41
25 -85 9 -18 -7 -44 -9 -59 -5 l-28 7 34 29 c18 16 37 30 41 30 4 0 5 15 2 33
-5 27 -1 38 31 71 26 28 33 41 24 46 -7 4 -11 14 -8 22 6 13 -7 197 -17 255
-4 21 -10 30 -19 27 -7 -3 -16 2 -19 10 -4 9 -15 16 -25 16 -11 0 -24 6 -31
13 -7 10 -36 13 -98 12 -51 -1 -91 2 -95 8 -3 6 -24 10 -45 9 -106 -4 -123 -5
-123 -13 0 -5 -7 -6 -15 -3 -10 4 -15 0 -16 -12 0 -12 -3 -14 -6 -6 -3 7 5 24
18 38 28 29 35 64 14 64 -11 0 -15 11 -15 36 0 28 -3 35 -15 30 -18 -7 -20 10
-2 17 7 4 4 8 -10 12 -22 7 -37 43 -27 68 3 8 1 18 -5 22 -6 3 -11 15 -11 27
0 17 -2 19 -16 7 -13 -11 -14 -9 -8 17 12 52 54 100 54 62 0 -6 3 -8 6 -5 4 4
1 13 -6 22 -7 8 -10 16 -6 16 3 1 10 2 16 3 5 0 15 7 22 14 6 6 17 12 23 12 7
0 20 9 30 20 24 26 28 25 63 -10 17 -16 51 -35 76 -42 29 -8 41 -15 33 -20 -7
-4 4 -8 26 -8 20 0 37 4 37 8 0 8 144 34 195 36 11 1 33 11 48 23 16 12 49 25
75 28 26 4 59 11 74 17 15 6 43 7 62 4 19 -4 37 -2 40 3 9 14 77 7 115 -12z
m266 -17 c-3 -5 -2 -10 4 -10 5 0 9 -9 8 -20 -1 -11 -5 -20 -9 -20 -4 0 -8 -5
-8 -11 0 -5 5 -7 10 -4 6 4 10 -5 10 -20 0 -22 -3 -24 -19 -16 -24 13 -35 51
-14 51 10 0 12 6 8 20 -6 19 0 40 11 40 3 0 2 -4 -1 -10z m111 -361 c7 -12
-15 -31 -31 -26 -5 2 -11 11 -13 20 -4 19 32 24 44 6z m-69 -71 c-2 -13 -4 -5
-4 17 -1 22 1 32 4 23 2 -10 2 -28 0 -40z m-267 -3 c0 -16 -35 -21 -45 -6 -4
8 9 15 38 20 4 0 7 -6 7 -14z m65 -16 c9 -13 6 -15 -32 -24 -29 -6 -32 -4 -28
14 7 35 14 42 35 31 10 -6 22 -15 25 -21z m-1496 -58 c-3 -6 -10 -7 -18 -2 -7
5 -10 14 -6 21 9 14 29 -2 24 -19z m-50 -179 c1 -13 -3 -20 -9 -17 -5 3 -10
23 -9 43 0 30 2 33 9 17 5 -11 9 -30 9 -43z m838 -3 c6 -6 9 -18 6 -25 -3 -8
1 -14 8 -14 8 -1 4 -7 -9 -14 -26 -14 -152 -21 -152 -8 0 4 -10 8 -21 9 -25 2
-35 10 -25 20 3 4 29 1 56 -6 44 -11 54 -11 76 4 14 9 28 23 31 31 6 17 15 18
30 3z m138 -9 c3 -6 0 -13 -8 -16 -20 -7 -10 -44 17 -67 11 -10 16 -16 9 -12
-8 3 -15 -4 -19 -20 -4 -16 -13 -25 -28 -26 -19 -1 -18 -2 4 -8 21 -6 22 -8 8
-14 -24 -9 -23 -27 2 -27 24 0 26 -18 3 -27 -20 -8 -40 -28 -72 -74 -14 -19
-33 -40 -43 -47 -17 -12 -48 -73 -48 -93 0 -20 18 -7 36 26 20 38 35 47 27 16
-7 -27 28 -58 79 -71 66 -17 77 -23 51 -27 -27 -5 -30 -28 -7 -37 15 -6 15 -8
-1 -26 -18 -19 -17 -20 26 -14 24 3 46 7 49 7 3 1 16 -5 29 -12 14 -8 21 -9
17 -2 -5 7 5 11 28 11 42 0 56 -17 24 -28 -35 -13 -331 -9 -335 4 -2 6 12 11
33 12 39 2 52 8 41 19 -4 3 -18 1 -31 -5 -18 -8 -26 -8 -28 0 -6 17 -48 -9
-48 -29 0 -14 -2 -14 -15 3 -15 19 -15 19 -10 -1 3 -11 -2 -5 -11 14 -12 26
-18 31 -24 21 -5 -8 -6 -18 -4 -22 3 -4 1 -8 -5 -8 -5 0 -13 20 -16 44 -8 49
-21 60 -77 64 -13 2 -18 11 -18 30 0 22 -2 24 -11 12 -9 -12 -10 -11 -6 7 3
15 1 20 -8 17 -7 -3 -18 8 -26 25 -7 16 -21 32 -29 34 -10 2 -22 24 -29 50 -7
25 -24 56 -37 68 -13 12 -24 32 -24 44 0 11 -5 26 -12 33 -6 6 -11 25 -10 42
0 24 -3 30 -21 31 -17 0 -14 4 13 14 19 7 27 14 18 14 -19 1 -22 9 -10 28 6
10 15 10 40 1 18 -7 32 -16 32 -21 0 -4 8 -3 18 2 27 15 74 1 108 -33 17 -17
38 -37 47 -43 18 -15 113 -18 121 -4 3 4 18 11 33 14 16 3 37 9 47 13 14 5 17
4 12 -4 -4 -7 -2 -12 6 -12 22 0 36 14 44 44 5 21 4 27 -5 22 -6 -4 -9 -12 -6
-17 11 -16 -7 -9 -21 9 -16 21 -18 52 -3 52 5 0 7 -4 4 -10 -3 -5 -1 -10 5
-10 6 0 13 7 16 15 7 17 49 20 59 5z m743 -32 c-2 -26 1 -33 17 -36 35 -7 65
-34 65 -58 0 -27 -16 -40 -24 -19 -6 18 -43 20 -48 3 -5 -14 -38 -3 -38 13 0
6 6 9 13 6 8 -3 13 3 13 14 0 11 -3 19 -7 19 -3 0 -5 15 -4 33 2 17 -2 38 -7
45 -8 9 -6 12 6 12 13 0 17 -7 14 -32z m-293 -8 c-3 -5 -12 -10 -18 -10 -7 0
-6 4 3 10 19 12 23 12 15 0z m-1354 -45 c11 -45 66 -105 96 -105 7 0 13 -5 13
-12 0 -6 10 -22 23 -36 21 -23 21 -24 3 -37 -24 -18 -16 -29 33 -45 34 -11 38
-15 25 -27 -9 -9 -22 -12 -36 -8 -31 10 -108 58 -108 68 0 8 -11 23 -41 55
-20 22 -44 81 -35 89 3 3 6 0 6 -8 0 -9 13 -28 29 -43 43 -41 49 -13 7 32 -29
30 -36 45 -36 80 0 23 2 42 5 42 3 0 10 -20 16 -45z m103 -36 c-8 -13 -24 -1
-24 18 0 13 3 13 15 3 8 -7 12 -16 9 -21z m64 -36 c14 -28 23 -73 15 -73 -13
1 -50 65 -45 78 5 17 20 15 30 -5z m1112 -298 c1 17 3 16 11 -6 7 -19 15 -25
28 -22 14 4 18 -2 18 -26 0 -30 -1 -30 -29 -15 -15 8 -28 11 -29 7 -2 -21 -18
36 -17 62 0 29 0 29 8 5 7 -21 8 -22 10 -5z m-33 -17 c-3 -8 -6 -5 -6 6 -1 11
2 17 5 13 3 -3 4 -12 1 -19z m-267 -59 c0 -5 -4 -9 -10 -9 -5 0 -10 7 -10 16
0 8 5 12 10 9 6 -3 10 -10 10 -16z m220 -51 c0 -10 -22 -15 -47 -10 -36 7 -27
21 12 19 19 -1 35 -5 35 -9z m-525 -115 c5 -17 2 -23 -9 -23 -9 0 -16 9 -16
20 0 11 -4 20 -10 20 -5 0 -10 10 -10 22 0 22 0 22 19 3 10 -11 22 -30 26 -42z
m140 7 c-16 -18 -14 -25 8 -21 4 0 7 -4 7 -10 0 -7 9 -9 23 -6 22 6 22 6 -2
-14 -13 -11 -31 -17 -42 -14 -9 3 -20 1 -23 -4 -4 -6 -13 -8 -21 -4 -8 3 -15
0 -15 -6 0 -6 -9 -11 -19 -11 -11 0 -21 -5 -23 -11 -5 -14 -38 0 -38 17 0 8
-10 14 -22 14 -21 1 -21 2 -6 11 10 5 26 9 35 7 13 -2 17 3 16 19 -2 18 4 23
40 31 28 5 44 5 49 -2 5 -7 8 -4 8 6 0 9 8 18 18 20 25 6 27 0 7 -22z m163 15
c21 -6 31 -25 14 -25 -12 0 -72 30 -72 36 0 5 6 4 58 -11z m128 3 c5 -7 2 -9
-9 -5 -9 3 -17 2 -19 -2 -5 -14 -42 -21 -58 -11 -13 9 -13 11 0 20 21 13 77
12 86 -2z"/>
<path d="M1890 1496 c0 -2 7 -6 15 -10 8 -3 15 -1 15 4 0 6 -7 10 -15 10 -8 0
-15 -2 -15 -4z"/>
<path d="M1080 1330 c0 -5 6 -10 14 -10 8 0 18 5 21 10 3 6 -3 10 -14 10 -12
0 -21 -4 -21 -10z"/>
<path d="M1983 1323 c9 -2 23 -2 30 0 6 3 -1 5 -18 5 -16 0 -22 -2 -12 -5z"/>
<path d="M1894 1308 c-7 -10 15 -9 41 2 17 7 16 8 -8 7 -16 -1 -31 -5 -33 -9z"/>
<path d="M1860 1300 c-9 -6 -10 -10 -3 -10 6 0 15 5 18 10 8 12 4 12 -15 0z"/>
<path d="M1808 1285 c-9 -9 -181 -47 -215 -48 -18 0 -33 -5 -33 -10 0 -11 94
-1 119 12 13 7 90 18 144 21 5 0 6 4 3 9 -4 5 0 12 6 14 9 4 8 6 -3 6 -9 1
-18 -1 -21 -4z"/>
<path d="M1985 1283 c-28 -6 -123 -43 -165 -66 l-35 -18 33 5 c18 3 61 17 96
31 84 34 107 32 150 -10 20 -19 39 -35 41 -35 10 0 -25 58 -37 63 -10 4 -9 8
2 16 13 10 13 11 0 12 -8 1 -26 2 -40 4 -14 1 -34 0 -45 -2z"/>
<path d="M1135 1273 c-26 -6 -44 -23 -24 -23 7 0 32 7 54 15 30 11 34 14 15
13 -14 0 -34 -2 -45 -5z"/>
<path d="M1488 1223 c6 -2 18 -2 25 0 6 3 1 5 -13 5 -14 0 -19 -2 -12 -5z"/>
<path d="M1206 1201 c-16 -3 -31 -13 -34 -21 -4 -12 -2 -13 9 -2 7 6 21 12 30
12 10 0 21 5 24 10 3 6 5 9 3 9 -2 -1 -16 -4 -32 -8z"/>
<path d="M1318 1193 c7 -3 16 -2 19 1 4 3 -2 6 -13 5 -11 0 -14 -3 -6 -6z"/>
<path d="M1095 1171 c-3 -5 -1 -12 5 -16 12 -7 30 2 30 16 0 12 -27 12 -35 0z"/>
<path d="M1958 753 c6 -2 18 -2 25 0 6 3 1 5 -13 5 -14 0 -19 -2 -12 -5z"/>
<path d="M1862 722 c-28 -25 -28 -30 6 -43 47 -19 66 -16 100 19 33 35 41 49
20 35 -20 -12 -91 -14 -98 -3 -4 7 -14 4 -28 -8z"/>
<path d="M1370 702 c0 -17 -62 -44 -86 -38 -26 7 -34 -11 -9 -20 19 -7 77 15
88 33 4 7 15 13 22 13 8 0 15 5 15 10 0 6 -7 10 -15 10 -8 0 -15 -4 -15 -8z"/>
<path d="M1346 23 c-11 -11 -6 -23 9 -23 8 0 15 4 15 9 0 13 -16 22 -24 14z"/>
</g>
</svg>
